<svg xmlns="http://www.w3.org/2000/svg" data-name="Icon Set" viewBox="0 0 24 30" x="0px" y="0px"><title>Education</title><path d="M21.41,9.09l-9-4a1,1,0,0,0-.81,0l-9,4a1,1,0,0,0,0,1.83l2,.87L4,12v6.5a.5.5,0,0,0,1,0V12.62L12,10l-1.22-.54L5.9,11.29,3,10l9-4,9,4-9,4L8.34,12.38,7,12.88l4.59,2a1,1,0,0,0,.81,0l4.59-2V16a7.79,7.79,0,0,1-5,2,7.79,7.79,0,0,1-5-2V12.88l-1,.37v3.17l.3.29A8.78,8.78,0,0,0,12,19a8.78,8.78,0,0,0,5.7-2.26l.3-.29v-4l3.41-1.51a1,1,0,0,0,0-1.83Z"/><text x="0" y="39" fill="#000000" font-size="5px" font-weight="bold" font-family="'Helvetica Neue', Helvetica, Arial-Unicode, Arial, Sans-serif">Created by Nathan Gathright</text><text x="0" y="44" fill="#000000" font-size="5px" font-weight="bold" font-family="'Helvetica Neue', Helvetica, Arial-Unicode, Arial, Sans-serif">from the Noun Project</text></svg>